<svg xmlns="http://www.w3.org/2000/svg" xmlns:xlink="http://www.w3.org/1999/xlink" version="1.1" id="Layer_1" x="0px" y="0px" enable-background="new 0 0 1600 1200" xml:space="preserve" viewBox="306.09 105.98 989.92 990.04">

<path fill="#5865F2" opacity="1.000000" stroke="none" d=" M1092.709717,1090.957031   C1077.366211,1092.312866 1062.475708,1093.638184 1047.584717,1094.957520   C1047.087891,1095.001465 1046.585815,1094.986572 1046.086182,1094.998413   C1031.988159,1095.332275 1017.890198,1095.948975 1003.791992,1095.956299   C864.634949,1096.028687 725.477905,1096.062256 586.321045,1095.912231   C570.956665,1095.895752 555.554138,1095.146729 540.239319,1093.886353   C517.288513,1091.997681 494.388947,1089.544189 472.011932,1083.566284   C449.423126,1077.531616 428.482422,1067.902588 409.788269,1054.021362   C396.764954,1044.350830 384.026093,1034.042236 372.523254,1022.643188   C357.985565,1008.236755 346.182495,991.469299 336.110291,973.536377   C324.660583,953.150757 317.364105,931.391174 314.020905,908.326172   C312.049866,894.727844 310.305634,881.077087 309.095367,867.393616   C307.961273,854.571838 307.122589,841.677673 307.082703,828.812439   C306.619934,679.557434 306.279022,530.301941 306.091339,381.046387   C306.074097,367.350189 306.865143,353.609955 308.098755,339.964111   C310.699158,311.199432 313.712708,282.505157 323.861572,255.066803   C331.640320,234.036118 342.925934,215.131882 356.852753,197.746033   C363.328613,189.661758 369.955750,181.595886 377.337189,174.361252   C392.582611,159.419098 409.708099,146.895905 428.254456,136.197586   C447.543274,125.070984 468.442810,118.673775 489.974152,114.213585   C500.675049,111.996910 511.669678,110.949303 522.587891,110.088234   C539.687378,108.739708 556.825989,107.794106 573.964417,107.060661   C588.716370,106.429337 603.490967,106.052246 618.255859,106.043922   C751.246643,105.968895 884.237549,105.937218 1017.228149,106.087967   C1032.092529,106.104813 1046.991211,106.896599 1061.810913,108.102661   C1084.608398,109.957962 1107.370239,112.384651 1129.579346,118.270264   C1152.308472,124.293655 1173.446533,133.966751 1192.251953,148.006027   C1205.252319,157.711456 1218.009033,167.992630 1229.510986,179.392395   C1244.047607,193.800049 1255.727173,210.641891 1265.950195,228.484955   C1277.012329,247.792252 1283.677734,268.646362 1287.756714,290.254578   C1290.483643,304.700470 1291.653442,319.474915 1292.902588,334.154907   C1294.036377,347.478394 1294.419678,360.869476 1294.975342,374.237366   C1295.436646,385.330292 1295.951416,396.432648 1295.956909,407.531097   C1296.023193,543.688293 1296.061523,679.845642 1295.912231,816.002686   C1295.895996,830.867065 1295.059448,845.760498 1293.912109,860.586975   C1291.958496,885.834351 1289.272461,911.003967 1282.015747,935.435242   C1274.393433,961.096863 1261.247437,983.697021 1244.899414,1004.753479   C1225.179077,1030.153564 1201.061035,1050.158569 1173.233276,1065.988525   C1153.042358,1077.474243 1131.352783,1084.389526 1108.513550,1088.044434   C1103.374634,1088.866699 1098.278564,1089.958130 1092.709717,1090.957031  M627.128784,771.419861   C625.362000,770.374268 623.595154,769.328674 621.544250,768.114990   C625.450867,765.033142 628.884583,762.639038 631.927429,759.822693   C634.295349,757.630981 636.311218,757.797058 639.044800,759.040222   C670.537170,773.363647 703.241760,783.916565 737.433289,789.392822   C752.494812,791.805115 767.697815,794.351685 782.885925,794.703064   C802.762329,795.162964 822.706970,793.828613 842.583862,792.629578   C852.346252,792.040771 862.116455,790.487366 871.719971,788.558167   C903.650940,782.143677 934.563904,772.457153 964.161682,758.731628   C965.334778,758.187683 967.330811,757.880798 968.209595,758.501892   C972.348938,761.427185 976.232056,764.715088 981.408752,768.828979   C961.998108,778.211853 943.642822,787.084595 925.095825,796.049988   C934.664124,815.160583 945.829712,833.654724 958.699890,851.093079   C959.488037,852.160889 962.239014,852.718018 963.648254,852.242676   C976.265869,847.986572 988.919128,843.782043 1001.313049,838.927002   C1044.511841,822.004822 1084.596069,799.388062 1121.979370,771.964294   C1123.667480,770.725891 1125.690430,768.637695 1125.836670,766.807861   C1127.113770,750.822571 1128.664551,734.812134 1128.816040,718.796753   C1128.974243,702.078308 1128.318237,685.289001 1126.845581,668.634338   C1125.007568,647.848328 1123.020630,626.976074 1119.265625,606.476685   C1105.173584,529.549133 1074.415161,459.378571 1031.141602,394.514160   C1029.592529,392.192047 1027.054565,390.020721 1024.489502,388.967987   C1007.861938,382.143890 991.294678,375.088135 974.334167,369.180481   C949.507202,360.532745 924.160217,353.722504 898.084167,349.639160   C893.441284,348.912109 892.286926,350.284302 890.766113,353.476410   C886.544922,362.336548 882.011414,371.056610 878.077942,380.040680   C876.566101,383.493866 874.834534,384.200897 871.305725,383.773712   C858.812317,382.261322 846.296326,380.827576 833.749817,379.882507   C799.146667,377.276062 764.677246,379.086487 730.344788,383.814026   C727.157104,384.252991 725.658203,383.433014 724.303650,380.474670   C720.011292,371.100464 715.233887,361.949188 710.881653,352.601105   C709.322205,349.251465 707.285522,348.619293 703.812439,349.266052   C660.229614,357.381531 618.159851,370.307953 577.873779,388.847473   C574.915955,390.208649 572.011902,392.714691 570.222900,395.437500   C521.314941,469.873749 488.537598,550.501648 477.461700,639.317688   C475.514496,654.932007 473.387543,670.648315 473.245697,686.334778   C473.019226,711.377319 474.440674,736.433044 475.026337,761.486389   C475.117615,765.392273 475.144135,768.552979 478.975403,771.348511   C527.555237,806.794617 580.306030,833.953491 637.642334,852.203125   C641.069275,853.293945 642.767578,852.513062 644.539001,849.702087   C651.904053,838.014771 659.569336,826.514587 666.818054,814.756836   C670.620056,808.589966 673.788574,802.032532 676.951233,796.190674   C660.204773,787.891907 643.974060,779.848694 627.128784,771.419861  z" data-index="1" style="opacity: 1;"/>
<path fill="#FFFFFF" opacity="1.000000" stroke="none" d=" M627.436035,771.612671   C643.974060,779.848694 660.204773,787.891907 676.951233,796.190674   C673.788574,802.032532 670.620056,808.589966 666.818054,814.756836   C659.569336,826.514587 651.904053,838.014771 644.539001,849.702087   C642.767578,852.513062 641.069275,853.293945 637.642334,852.203125   C580.306030,833.953491 527.555237,806.794617 478.975403,771.348511   C475.144135,768.552979 475.117615,765.392273 475.026337,761.486389   C474.440674,736.433044 473.019226,711.377319 473.245697,686.334778   C473.387543,670.648315 475.514496,654.932007 477.461700,639.317688   C488.537598,550.501648 521.314941,469.873749 570.222900,395.437500   C572.011902,392.714691 574.915955,390.208649 577.873779,388.847473   C618.159851,370.307953 660.229614,357.381531 703.812439,349.266052   C707.285522,348.619293 709.322205,349.251465 710.881653,352.601105   C715.233887,361.949188 720.011292,371.100464 724.303650,380.474670   C725.658203,383.433014 727.157104,384.252991 730.344788,383.814026   C764.677246,379.086487 799.146667,377.276062 833.749817,379.882507   C846.296326,380.827576 858.812317,382.261322 871.305725,383.773712   C874.834534,384.200897 876.566101,383.493866 878.077942,380.040680   C882.011414,371.056610 886.544922,362.336548 890.766113,353.476410   C892.286926,350.284302 893.441284,348.912109 898.084167,349.639160   C924.160217,353.722504 949.507202,360.532745 974.334167,369.180481   C991.294678,375.088135 1007.861938,382.143890 1024.489502,388.967987   C1027.054565,390.020721 1029.592529,392.192047 1031.141602,394.514160   C1074.415161,459.378571 1105.173584,529.549133 1119.265625,606.476685   C1123.020630,626.976074 1125.007568,647.848328 1126.845581,668.634338   C1128.318237,685.289001 1128.974243,702.078308 1128.816040,718.796753   C1128.664551,734.812134 1127.113770,750.822571 1125.836670,766.807861   C1125.690430,768.637695 1123.667480,770.725891 1121.979370,771.964294   C1084.596069,799.388062 1044.511841,822.004822 1001.313049,838.927002   C988.919128,843.782043 976.265869,847.986572 963.648254,852.242676   C962.239014,852.718018 959.488037,852.160889 958.699890,851.093079   C945.829712,833.654724 934.664124,815.160583 925.095825,796.049988   C943.642822,787.084595 961.998108,778.211853 981.408752,768.828979   C976.232056,764.715088 972.348938,761.427185 968.209595,758.501892   C967.330811,757.880798 965.334778,758.187683 964.161682,758.731628   C934.563904,772.457153 903.650940,782.143677 871.719971,788.558167   C862.116455,790.487366 852.346252,792.040771 842.583862,792.629578   C822.706970,793.828613 802.762329,795.162964 782.885925,794.703064   C767.697815,794.351685 752.494812,791.805115 737.433289,789.392822   C703.241760,783.916565 670.537170,773.363647 639.044800,759.040222   C636.311218,757.797058 634.295349,757.630981 631.927429,759.822693   C628.884583,762.639038 625.450867,765.033142 621.544250,768.114990   C623.595154,769.328674 625.362000,770.374268 627.436035,771.612671  M677.949829,561.194031   C667.790039,564.116516 659.071777,569.436340 651.882751,577.163574   C625.779480,605.220825 626.749756,650.528809 654.359680,677.178955   C663.660156,686.156006 674.908142,691.633484 687.571960,692.803223   C702.204346,694.154968 715.420776,689.315308 726.842896,679.973145   C758.384949,654.175110 758.852051,600.647583 729.347595,574.044617   C714.690491,560.828918 697.652100,557.503784 677.949829,561.194031  M906.753418,693.000549   C930.853821,693.093201 948.484741,681.998291 960.043457,661.308350   C967.606567,647.770630 970.101562,633.229980 968.284729,617.525635   C966.865417,605.257568 963.265381,594.254333 956.310120,584.249146   C933.271973,551.108521 885.899719,551.067322 863.590820,585.076904   C847.312500,609.892822 846.378662,635.968506 860.636597,662.036255   C870.350647,679.796326 885.767944,689.987000 906.753418,693.000549  z" data-index="2" style="opacity: 1; visibility: visible;"/>
<path fill="#5965F2" opacity="1.000000" stroke="none" d=" M678.359924,561.105103   C697.652100,557.503784 714.690491,560.828918 729.347595,574.044617   C758.852051,600.647583 758.384949,654.175110 726.842896,679.973145   C715.420776,689.315308 702.204346,694.154968 687.571960,692.803223   C674.908142,691.633484 663.660156,686.156006 654.359680,677.178955   C626.749756,650.528809 625.779480,605.220825 651.882751,577.163574   C659.071777,569.436340 667.790039,564.116516 678.359924,561.105103  z" data-index="3" style="opacity: 1;"/>
<path fill="#5966F2" opacity="1.000000" stroke="none" d=" M906.298706,692.999634   C885.767944,689.987000 870.350647,679.796326 860.636597,662.036255   C846.378662,635.968506 847.312500,609.892822 863.590820,585.076904   C885.899719,551.067322 933.271973,551.108521 956.310120,584.249146   C963.265381,594.254333 966.865417,605.257568 968.284729,617.525635   C970.101562,633.229980 967.606567,647.770630 960.043457,661.308350   C948.484741,681.998291 930.853821,693.093201 906.298706,692.999634  z" data-index="4" style="opacity: 1;"/>
</svg>